<svg width="21" height="20" viewBox="0 0 21 20"> 
  <path
     d="M19.1375 11.8911L20.8453 4.13686C20.9686 3.57699 20.5562 3.04384 19.9999 3.04384H5.8103L5.47917 1.37333C5.39666 0.956951 5.04161 0.657928 4.62974 0.657928H0.925797C0.446949 0.657928 0.0587769 1.0585 0.0587769 1.55265V2.14913C0.0587769 2.64327 0.446949 3.04384 0.925797 3.04384H3.45038L5.98814 15.8471C5.38101 16.2074 4.97189 16.883 4.97189 17.6576C4.97189 18.8106 5.87764 19.7453 6.99493 19.7453C8.11223 19.7453 9.01798 18.8106 9.01798 17.6576C9.01798 17.0733 8.78508 16.5453 8.4102 16.1664H15.9839C15.609 16.5453 15.3761 17.0733 15.3761 17.6576C15.3761 18.8106 16.2819 19.7453 17.3992 19.7453C18.5165 19.7453 19.4222 18.8106 19.4222 17.6576C19.4222 16.831 18.9566 16.1167 18.2814 15.7785L18.4807 14.8735C18.604 14.3136 18.1916 13.7805 17.6353 13.7805H7.93843L7.70199 12.5875H18.2921C18.6969 12.5875 19.0478 12.2984 19.1375 11.8911Z"
     fill="#E5E5E5"
     id="path2" />
</svg>
