<svg width="122.1mm" height="27.604mm" version="1.1" viewBox="0 0 122.1 27.604" xmlns="http://www.w3.org/2000/svg">
 <g transform="translate(-44.333 -110.82)">
  <ellipse cx="63.201" cy="126.5" rx="12.746" ry="11.31" fill="none" stroke="#000" stroke-width="1.2231"/>
  <g transform="translate(-.34009 -.18228)" stroke-width=".26458">
   <g aria-label="КАРПАТСЬКІ">
    <path d="m87.774 123.25q0 0.091-0.04961 0.15709-0.04961 0.0579-0.1819 0.0992-0.12402 0.0413-0.339 0.0579-0.21497 0.0248-0.55397 0.0248-0.35553 0-0.57878-0.0248-0.21497-0.0165-0.34726-0.0579-0.13229-0.0496-0.19844-0.12402-0.06615-0.0827-0.09922-0.19844l-0.85989-2.3812q-0.1819-0.52089-0.38034-0.86816-0.19844-0.35553-0.43822-0.5705-0.23978-0.22325-0.5457-0.3142-0.30592-0.0909-0.68626-0.0909h-0.48782v4.2829q0 0.0909-0.04961 0.15709-0.04961 0.0579-0.17363 0.10749-0.12402 0.0413-0.33073 0.0579-0.2067 0.0248-0.52917 0.0248-0.31419 0-0.52916-0.0248-0.20671-0.0165-0.33073-0.0579-0.12402-0.0496-0.1819-0.10749-0.04961-0.0661-0.04961-0.15709v-10.112q0-0.0909 0.04961-0.14883 0.05788-0.0661 0.1819-0.10748 0.12402-0.0413 0.33073-0.0579 0.21497-0.0248 0.52916-0.0248 0.32246 0 0.52917 0.0248 0.2067 0.0165 0.33073 0.0579 0.12402 0.0413 0.17363 0.10748 0.04961 0.0579 0.04961 0.14883v4.0184h0.48782q0.37207 0 0.65319-0.0992 0.28112-0.0992 0.50436-0.3142 0.23151-0.21497 0.41341-0.55397 0.19017-0.34726 0.3638-0.85162l0.71933-2.1332q0.04134-0.11576 0.09922-0.19017 0.05788-0.0827 0.1819-0.12402 0.13229-0.0496 0.339-0.0661 0.21497-0.0248 0.57051-0.0248 0.32246 0 0.52916 0.0248 0.21497 0.0165 0.33073 0.0579 0.12402 0.0331 0.16536 0.0992 0.04134 0.0579 0.04134 0.14882 0 0.10749-0.04134 0.26459-0.03307 0.15709-0.12402 0.41341l-0.71934 1.9017q-0.19844 0.52916-0.39687 0.90123t-0.42168 0.63665q-0.21497 0.25632-0.46302 0.42168-0.23978 0.16537-0.53743 0.27285v8e-3q0.33073 0.14056 0.59531 0.32246 0.27285 0.17364 0.50436 0.44649 0.23978 0.27285 0.45475 0.66972 0.21497 0.39688 0.43822 0.97565l0.87643 2.2159q0.13229 0.339 0.1571 0.47129 0.02481 0.12402 0.02481 0.20671z"/>
    <path d="m98.15 122.73q0.09922 0.29765 0.12402 0.47129 0.02481 0.17363-0.06615 0.26458-0.09095 0.0827-0.32246 0.0992-0.23151 0.0248-0.63665 0.0248-0.42168 0-0.66146-0.0165-0.23151-8e-3 -0.35553-0.0414-0.12402-0.0413-0.17363-0.10748-0.04961-0.0662-0.08268-0.17363l-0.71934-2.1497h-4.0184l-0.67799 2.0919q-0.03307 0.11575-0.09095 0.19843-0.04961 0.0744-0.17363 0.12403-0.11576 0.0413-0.339 0.0579-0.21497 0.0165-0.57051 0.0165-0.38034 0-0.59531-0.0248-0.21497-0.0248-0.29766-0.11576-0.08268-0.0992-0.05788-0.27285 0.0248-0.17363 0.12402-0.46302l3.299-9.4919q0.04961-0.14056 0.11576-0.22324 0.06615-0.091 0.2067-0.13229 0.14883-0.0496 0.40514-0.0579 0.25632-0.0165 0.67799-0.0165 0.48782 0 0.77721 0.0165 0.28939 8e-3 0.44648 0.0579 0.16536 0.0413 0.23151 0.13229 0.07441 0.091 0.12402 0.24805zm-4.9113-7.8465h-0.0083l-1.5131 4.5475h3.0344z"/>
    <path d="m106.97 116.09q0 0.90124-0.28112 1.5958t-0.81855 1.1741q-0.53743 0.47129-1.3229 0.71934-0.77722 0.24805-1.8356 0.24805h-0.89296v3.4148q0 0.0827-0.0579 0.14882-0.0496 0.0661-0.17363 0.10749-0.12403 0.0413-0.33073 0.0661-0.20671 0.0248-0.52917 0.0248-0.31419 0-0.52916-0.0248-0.20671-0.0248-0.33073-0.0661-0.12402-0.0413-0.17363-0.10749-0.04961-0.0661-0.04961-0.14882v-9.6242q0-0.38861 0.19844-0.57878 0.20671-0.19843 0.53744-0.19843h2.5218q0.38034 0 0.71934 0.0331 0.34726 0.0248 0.82682 0.12402 0.47955 0.091 0.96738 0.34727 0.49609 0.25631 0.84336 0.65319 0.34726 0.3886 0.52916 0.91777 0.1819 0.52089 0.1819 1.1741zm-2.2738 0.1571q0-0.56224-0.19843-0.92604-0.19844-0.3638-0.48783-0.53743-0.28939-0.17364-0.61185-0.21498-0.31419-0.0496-0.65318-0.0496h-0.92604v3.6298h0.97565q0.52089 0 0.86816-0.14056 0.35553-0.14056 0.57877-0.38861 0.22324-0.25631 0.339-0.60358 0.11575-0.35553 0.11575-0.76894z"/>
    <path d="m116.99 123.25q0 0.0827-0.0496 0.14883-0.0496 0.0579-0.17364 0.0992-0.12402 0.0413-0.33899 0.0579-0.20671 0.0248-0.5209 0.0248t-0.52917-0.0248q-0.2067-0.0165-0.33072-0.0579-0.12403-0.0413-0.1819-0.0992-0.0496-0.0661-0.0496-0.14883v-8.6072h-3.9853v8.6072q0 0.0827-0.0579 0.14883-0.0496 0.0579-0.17363 0.0992t-0.33073 0.0579q-0.20671 0.0248-0.52917 0.0248-0.31419 0-0.52916-0.0248-0.20671-0.0165-0.33073-0.0579-0.12402-0.0413-0.17363-0.0992-0.0496-0.0661-0.0496-0.14883v-9.7317q0-0.34727 0.17363-0.51263 0.17363-0.17363 0.46302-0.17363h7.0693q0.29766 0 0.46302 0.17363 0.16537 0.16536 0.16537 0.51263z"/>
    <path d="m128.09 122.73q0.0992 0.29765 0.12402 0.47129 0.0248 0.17363-0.0661 0.26458-0.0909 0.0827-0.32246 0.0992-0.23151 0.0248-0.63666 0.0248-0.42167 0-0.66145-0.0165-0.23151-8e-3 -0.35554-0.0414-0.12402-0.0413-0.17363-0.10748-0.0496-0.0662-0.0827-0.17363l-0.71933-2.1497h-4.0184l-0.67799 2.0919q-0.0331 0.11575-0.091 0.19843-0.0496 0.0744-0.17363 0.12403-0.11576 0.0413-0.339 0.0579-0.21497 0.0165-0.57051 0.0165-0.38033 0-0.59531-0.0248-0.21497-0.0248-0.29765-0.11576-0.0827-0.0992-0.0579-0.27285 0.0248-0.17363 0.12402-0.46302l3.299-9.4919q0.0496-0.14056 0.11576-0.22324 0.0661-0.091 0.2067-0.13229 0.14883-0.0496 0.40514-0.0579 0.25632-0.0165 0.678-0.0165 0.48782 0 0.77721 0.0165 0.28939 8e-3 0.44648 0.0579 0.16537 0.0413 0.23151 0.13229 0.0744 0.091 0.12402 0.24805zm-4.9113-7.8465h-8e-3l-1.5131 4.5475h3.0344z"/>
    <path d="m135.55 113.73q0 0.23978-0.0248 0.41341-0.0165 0.16537-0.0579 0.27285-0.0413 0.0992-0.10749 0.14883-0.0579 0.0496-0.13229 0.0496h-2.6789v8.6238q0 0.0827-0.0579 0.14882-0.0496 0.0661-0.17363 0.10749-0.12403 0.0413-0.339 0.0661-0.20671 0.0248-0.5209 0.0248t-0.52916-0.0248q-0.20671-0.0248-0.33073-0.0661t-0.1819-0.10749q-0.0496-0.0661-0.0496-0.14882v-8.6238h-2.6789q-0.0827 0-0.14056-0.0496-0.0579-0.0496-0.0992-0.14883-0.0413-0.10748-0.0661-0.27285-0.0165-0.17363-0.0165-0.41341 0-0.24804 0.0165-0.42168 0.0248-0.17363 0.0661-0.27285 0.0413-0.10748 0.0992-0.14883 0.0579-0.0496 0.14056-0.0496h7.5406q0.0744 0 0.13229 0.0496 0.0661 0.0413 0.10749 0.14883 0.0413 0.0992 0.0579 0.27285 0.0248 0.17364 0.0248 0.42168z"/>
    <path d="m143.78 121.91q0 0.20671-0.0165 0.35554-8e-3 0.14056-0.0331 0.24804-0.0248 0.0992-0.0661 0.17364-0.0413 0.0744-0.13229 0.17363-0.0909 0.091-0.35553 0.23978-0.25632 0.14882-0.63666 0.28938-0.37207 0.13229-0.85989 0.22324-0.47956 0.091-1.0418 0.091-1.0997 0-1.9844-0.339t-1.5048-1.0087q-0.62012-0.678-0.95085-1.6867t-0.33073-2.3482q0-1.3643 0.36381-2.4226 0.3638-1.0583 1.017-1.7777 0.65319-0.71934 1.5627-1.0914 0.91777-0.37207 2.0174-0.37207 0.44649 0 0.8599 0.0744t0.76067 0.19843q0.35554 0.11576 0.63665 0.27285 0.28112 0.1571 0.38861 0.27286 0.11576 0.10748 0.1571 0.1819 0.0413 0.0744 0.0661 0.19017 0.0248 0.11575 0.0331 0.27285 0.0165 0.15709 0.0165 0.3886 0 0.24805-0.0165 0.42168t-0.0579 0.28112q-0.0413 0.10749-0.0992 0.1571-0.0579 0.0496-0.13229 0.0496-0.12403 0-0.31419-0.14056-0.19017-0.14883-0.4961-0.32246-0.29765-0.1819-0.71933-0.32246-0.41341-0.14883-0.99219-0.14883-0.63665 0-1.141 0.26458-0.49609 0.25632-0.85163 0.74414-0.34726 0.47956-0.52916 1.1658t-0.1819 1.5462q0 0.94258 0.19017 1.6371 0.19843 0.68626 0.55397 1.1327 0.3638 0.44649 0.86816 0.66973 0.51263 0.21497 1.1493 0.21497 0.57878 0 1.0004-0.13229 0.42168-0.14056 0.71934-0.30592 0.30592-0.16537 0.49609-0.29766 0.19844-0.13229 0.30593-0.13229 0.0827 0 0.13229 0.0331 0.0496 0.0331 0.0827 0.1323t0.0496 0.28111q0.0165 0.17364 0.0165 0.47129z"/>
    <path d="m153.22 119.99q0 0.76068-0.23151 1.3973-0.22324 0.63665-0.73587 1.1162-0.50436 0.47128-1.3229 0.7524-0.81855 0.28112-2.2407 0.28112h-2.6706q-0.14055 0-0.26458-0.0331-0.11575-0.0413-0.2067-0.12402-0.091-0.0909-0.14883-0.21498-0.0496-0.13229-0.0496-0.31419v-9.7317q0-0.0827 0.0496-0.14056 0.0579-0.0661 0.1819-0.10748 0.13229-0.0413 0.339-0.0579 0.21497-0.0248 0.52089-0.0248 0.32246 0 0.52917 0.0248 0.2067 0.0165 0.33073 0.0579 0.12402 0.0413 0.17363 0.10748 0.0496 0.0579 0.0496 0.14056v3.6463h1.4966q1.2154 0 1.9348 0.21497 0.71933 0.20671 1.2154 0.62012 0.50436 0.41341 0.77721 1.017t0.27285 1.3725zm-2.2324 0.1819q0-0.40514-0.11575-0.71933-0.11576-0.3142-0.35554-0.53744t-0.62011-0.33899q-0.37207-0.12403-1.1162-0.12403h-1.2568v3.3982h1.2981q0.77721 0 1.1576-0.14883 0.3886-0.1571 0.60358-0.39687 0.21497-0.24805 0.30592-0.54571 0.0992-0.29765 0.0992-0.58704z"/>
    <path d="m162.63 123.25q0 0.091-0.0496 0.15709-0.0496 0.0579-0.1819 0.0992-0.12402 0.0413-0.339 0.0579-0.21497 0.0248-0.55397 0.0248-0.35553 0-0.57877-0.0248-0.21498-0.0165-0.34727-0.0579-0.13229-0.0496-0.19843-0.12402-0.0662-0.0827-0.0992-0.19844l-0.8599-2.3812q-0.1819-0.52089-0.38033-0.86816-0.19844-0.35553-0.43822-0.5705-0.23978-0.22325-0.5457-0.3142-0.30593-0.0909-0.68626-0.0909h-0.48783v4.2829q0 0.0909-0.0496 0.15709-0.0496 0.0579-0.17363 0.10749-0.12402 0.0413-0.33073 0.0579-0.2067 0.0248-0.52916 0.0248-0.3142 0-0.52917-0.0248-0.20671-0.0165-0.33073-0.0579-0.12402-0.0496-0.1819-0.10749-0.0496-0.0661-0.0496-0.15709v-10.112q0-0.0909 0.0496-0.14883 0.0579-0.0661 0.1819-0.10748 0.12402-0.0413 0.33073-0.0579 0.21497-0.0248 0.52917-0.0248 0.32246 0 0.52916 0.0248 0.20671 0.0165 0.33073 0.0579 0.12402 0.0413 0.17363 0.10748 0.0496 0.0579 0.0496 0.14883v4.0184h0.48783q0.37207 0 0.65318-0.0992 0.28112-0.0992 0.50437-0.3142 0.23151-0.21497 0.41341-0.55397 0.19017-0.34726 0.3638-0.85162l0.71933-2.1332q0.0413-0.11576 0.0992-0.19017 0.0579-0.0827 0.1819-0.12402 0.13229-0.0496 0.339-0.0661 0.21497-0.0248 0.57051-0.0248 0.32246 0 0.52916 0.0248 0.21497 0.0165 0.33073 0.0579 0.12402 0.0331 0.16536 0.0992 0.0413 0.0579 0.0413 0.14882 0 0.10749-0.0413 0.26459-0.0331 0.15709-0.12402 0.41341l-0.71933 1.9017q-0.19844 0.52916-0.39688 0.90123t-0.42168 0.63665q-0.21497 0.25632-0.46302 0.42168-0.23978 0.16537-0.53743 0.27285v8e-3q0.33073 0.14056 0.59531 0.32246 0.27285 0.17364 0.50436 0.44649 0.23978 0.27285 0.45475 0.66972 0.21498 0.39688 0.43822 0.97565l0.87643 2.2159q0.13229 0.339 0.15709 0.47129 0.0248 0.12402 0.0248 0.20671z"/>
    <path d="m166.43 123.24q0 0.0827-0.0579 0.14882-0.0496 0.0661-0.17363 0.10749-0.12402 0.0413-0.33073 0.0661t-0.52917 0.0248q-0.31419 0-0.52916-0.0248-0.20671-0.0248-0.33073-0.0661t-0.1819-0.10749q-0.0496-0.0661-0.0496-0.14882v-10.104q0-0.0827 0.0496-0.14883 0.0579-0.0661 0.1819-0.10748 0.13229-0.0413 0.339-0.0661 0.2067-0.0248 0.52089-0.0248 0.32246 0 0.52917 0.0248t0.33073 0.0661 0.17363 0.10748q0.0579 0.0661 0.0579 0.14883z"/>
   </g>
   <g aria-label="ТРАВИ">
    <path d="m107.44 125.91q0 0.23978-0.0248 0.41341-0.0165 0.16537-0.0579 0.27286-0.0413 0.0992-0.10749 0.14882-0.0579 0.0496-0.13229 0.0496h-2.6789v8.6238q0 0.0827-0.0579 0.14883-0.0496 0.0661-0.17363 0.10748-0.12402 0.0413-0.339 0.0661-0.2067 0.0248-0.52089 0.0248-0.3142 0-0.52917-0.0248-0.2067-0.0248-0.33073-0.0661-0.12402-0.0413-0.1819-0.10748-0.0496-0.0661-0.0496-0.14883v-8.6238h-2.6789q-0.08268 0-0.14056-0.0496t-0.09922-0.14882q-0.04134-0.10749-0.06615-0.27286-0.01654-0.17363-0.01654-0.41341 0-0.24804 0.01654-0.42168 0.02481-0.17363 0.06615-0.27285 0.04134-0.10748 0.09922-0.14882 0.05788-0.0496 0.14056-0.0496h7.5406q0.0744 0 0.13229 0.0496 0.0661 0.0413 0.10749 0.14882 0.0413 0.0992 0.0579 0.27285 0.0248 0.17364 0.0248 0.42168z"/>
    <path d="m116.03 128.27q0 0.90124-0.28112 1.5958t-0.81856 1.1741q-0.53743 0.47128-1.3229 0.71933-0.77721 0.24805-1.8355 0.24805h-0.89297v3.4148q0 0.0827-0.0579 0.14883-0.0496 0.0661-0.17363 0.10748-0.12402 0.0413-0.33073 0.0661t-0.52917 0.0248q-0.31419 0-0.52916-0.0248-0.20671-0.0248-0.33073-0.0661t-0.17363-0.10748q-0.0496-0.0661-0.0496-0.14883v-9.6242q0-0.38861 0.19844-0.57878 0.2067-0.19843 0.53743-0.19843h2.5218q0.38034 0 0.71934 0.0331 0.34726 0.0248 0.82682 0.12402 0.47956 0.091 0.96738 0.34727 0.49609 0.25631 0.84336 0.65319 0.34726 0.3886 0.52916 0.91777 0.18191 0.5209 0.18191 1.1741zm-2.2738 0.1571q0-0.56224-0.19844-0.92604t-0.48783-0.53743q-0.28938-0.17364-0.61184-0.21498-0.31419-0.0496-0.65319-0.0496h-0.92604v3.6298h0.97565q0.5209 0 0.86816-0.14056 0.35553-0.14056 0.57877-0.38861 0.22325-0.25631 0.339-0.60358 0.11576-0.35553 0.11576-0.76894z"/>
    <path d="m125.54 134.91q0.0992 0.29765 0.12402 0.47129 0.0248 0.17363-0.0661 0.26458-0.0909 0.0827-0.32246 0.0992-0.23151 0.0248-0.63666 0.0248-0.42168 0-0.66145-0.0165-0.23151-8e-3 -0.35554-0.0413-0.12402-0.0414-0.17363-0.10749-0.0496-0.0661-0.0827-0.17363l-0.71934-2.1497h-4.0184l-0.67799 2.0919q-0.0331 0.11575-0.0909 0.19844-0.0496 0.0744-0.17363 0.12402-0.11576 0.0413-0.339 0.0579-0.21497 0.0165-0.57051 0.0165-0.38033 0-0.59531-0.0248-0.21497-0.0248-0.29765-0.11576-0.0827-0.0992-0.0579-0.27285 0.0248-0.17363 0.12402-0.46302l3.299-9.4919q0.0496-0.14056 0.11575-0.22324 0.0662-0.0909 0.20671-0.13229 0.14883-0.0496 0.40514-0.0579 0.25632-0.0165 0.678-0.0165 0.48782 0 0.77721 0.0165 0.28938 8e-3 0.44648 0.0579 0.16536 0.0413 0.23151 0.13229 0.0744 0.091 0.12402 0.24805zm-4.9113-7.8465h-8e-3l-1.5131 4.5475h3.0344z"/>
    <path d="m134.78 132.51q0 0.5705-0.15709 1.0335-0.1571 0.46302-0.43822 0.81856-0.27285 0.35553-0.66146 0.61184-0.38033 0.25632-0.84335 0.42168-0.46302 0.16537-0.99219 0.24805-0.5209 0.0744-1.1658 0.0744h-2.8443q-0.27285 0-0.46302-0.15709-0.1819-0.16537-0.1819-0.52917v-9.3265q0-0.3638 0.1819-0.5209 0.19017-0.16536 0.46302-0.16536h2.6872q0.98391 0 1.6619 0.16536 0.68626 0.16536 1.1493 0.50436 0.47129 0.33073 0.71933 0.84336 0.24805 0.51263 0.24805 1.2072 0 0.3886-0.0992 0.73587-0.0992 0.339-0.28939 0.62012-0.19017 0.28111-0.47129 0.49609-0.27285 0.21497-0.62838 0.34726 0.45475 0.0827 0.83509 0.28939 0.38861 0.20671 0.66973 0.53743 0.28938 0.32246 0.45475 0.76068 0.16536 0.43822 0.16536 0.98392zm-2.8112-4.5062q0-0.32246-0.0992-0.57877-0.0992-0.25632-0.29766-0.42168-0.19843-0.17363-0.50436-0.26459-0.29765-0.091-0.80201-0.091h-1.0997v2.7781h1.2154q0.47129 0 0.75241-0.10748 0.28112-0.11576 0.46302-0.30593 0.19017-0.19843 0.28112-0.45475 0.091-0.26458 0.091-0.55397zm0.55397 4.5806q0-0.37207-0.12402-0.66146-0.12403-0.29765-0.36381-0.49609-0.23977-0.19844-0.61184-0.30592-0.37207-0.10749-0.96738-0.10749h-1.2898v3.0427h1.571q0.45475 0 0.76067-0.091 0.31419-0.0992 0.53743-0.28112 0.23151-0.19017 0.35554-0.46302 0.13229-0.28112 0.13229-0.63665z"/>
    <path d="m145.23 135.43q0 0.0827-0.0579 0.14883-0.0496 0.0579-0.17364 0.0992-0.12402 0.0413-0.33899 0.0579-0.20671 0.0248-0.5209 0.0248t-0.52917-0.0248q-0.2067-0.0165-0.33073-0.0579-0.11575-0.0413-0.16536-0.0992-0.0496-0.0661-0.0496-0.14883v-5.6389q0-0.32246 8e-3 -0.62838 8e-3 -0.31419 0.0248-0.55397h-0.0165q-0.0661 0.11575-0.1571 0.27285-0.0909 0.14883-0.19844 0.32246-0.0992 0.16536-0.21497 0.34727-0.11575 0.17363-0.23151 0.33899l-3.7207 5.548q-0.0661 0.0909-0.14056 0.1571-0.0661 0.0661-0.1819 0.10749-0.10749 0.0331-0.27286 0.0413-0.15709 0.0165-0.41341 0.0165-0.32246 0-0.52089-0.0248-0.19844-0.0165-0.3142-0.0579-0.10748-0.0413-0.14882-0.10749-0.0413-0.0661-0.0413-0.15709v-10.12q0-0.0827 0.0496-0.14056 0.0579-0.0661 0.1819-0.10749 0.1323-0.0413 0.339-0.0579 0.20671-0.0248 0.5209-0.0248 0.32246 0 0.52916 0.0248 0.20671 0.0165 0.33073 0.0579 0.12403 0.0413 0.17364 0.10749 0.0496 0.0579 0.0496 0.14056v5.672q0 0.26458-8e-3 0.56224-8e-3 0.29765-0.0248 0.57877h0.0165q0.14056-0.24804 0.35553-0.59531 0.21498-0.34726 0.44649-0.67799l3.7207-5.548q0.0579-0.0827 0.12402-0.14056 0.0662-0.0661 0.17364-0.10749 0.11575-0.0413 0.28112-0.0579 0.16536-0.0165 0.42167-0.0165 0.3142 0 0.50437 0.0248 0.19843 0.0165 0.31419 0.0579 0.11575 0.0413 0.15709 0.10749 0.0496 0.0579 0.0496 0.14882z"/>
   </g>
  </g>
  <g transform="matrix(1.7225 0 0 1.7225 -43.927 -90.623)">
   <g transform="matrix(.047508 0 0 .047508 50.004 111.68)">
    <g >
     <g clip-rule="evenodd" fill-rule="evenodd">
      <path d="m89.65 283.87-63.649 68.9h79.494l0.358-0.421 51.853-56.163c-9.851 0.291-19.801-0.356-29.849-1.912-12.606-1.977-25.341-5.445-38.207-10.404zm24.37-60.116-47.413 51.27h22.103c0.972 0 1.846 0.356 2.562 0.939 12.768 5.023 25.374 8.523 37.818 10.468 12.252 1.913 24.37 2.366 36.362 1.361l12.347-13.352h-24.823c-0.972-0.032-1.944-0.357-2.692-1.069-1.618-1.459-1.716-3.987-0.26-5.607l40.868-44.236c-12.413 4.99-25.117 7.551-38.046 7.583-12.737 0.032-25.701-2.431-38.826-7.357zm64.557-50.361h6.254l-33.414-40.479-32.179 40.479h4.699c0.323 0 0.614 0.031 0.905 0.097 0.748-0.162 1.559-0.13 2.334 0.194 8.686 3.468 17.175 5.186 25.44 5.153 8.233 0 16.365-1.718 24.37-5.121 0.52-0.227 1.04-0.323 1.591-0.323zm9.139 35.777c-2.106-0.129-3.794-1.848-3.794-3.985 0-1.103 0.456-2.074 1.168-2.788l4.861-5.898-12.445-14.453c-8.135 3.144-16.431 4.731-24.889 4.731-8.879 0.032-17.888-1.686-26.995-5.185l-27.546 33.477h14.841c0.614 0 1.201 0.13 1.751 0.39 12.996 5.185 25.731 7.745 38.176 7.713 12.508 0 24.823-2.625 36.913-7.778 2.007-0.843 4.341 0.098 5.215 2.107 0.165 0.42 0.26 0.842 0.292 1.295l8.882-9.625h-16.43zm199.44-35.681c0.292-0.065 0.583-0.097 0.905-0.097h4.699l-32.178-40.479-27.291 40.479h0.39c0.456 0.031 0.908 0.129 1.361 0.323 7.974 3.403 16.108 5.121 24.338 5.121 8.297 0.032 16.786-1.686 25.441-5.153 0.781-0.324 1.592-0.356 2.335-0.194zm10.21 41.969c0.516-0.26 1.102-0.39 1.716-0.39h14.842l-27.511-33.477c-9.143 3.499-18.152 5.217-27.031 5.185-8.457 0-16.754-1.588-24.889-4.731l-12.638 14.713 4.794 5.607c0.747 0.713 1.2 1.717 1.2 2.819 0 2.203-1.783 3.985-3.987 3.985h-16.234l9.107 9.853c0-0.519 0.094-1.037 0.322-1.522 0.842-2.01 3.176-2.95 5.188-2.107 12.118 5.153 24.401 7.778 36.909 7.778 12.445 0.032 25.185-2.528 38.212-7.713zm23.398 60.505c0.681-0.583 1.555-0.939 2.526-0.939h22.104l-47.383-51.27c-13.156 4.926-26.117 7.389-38.856 7.356-13.06-0.032-25.862-2.626-38.401-7.745l40.834 44.204c0.743 0.745 1.231 1.749 1.231 2.884 0 2.204-1.814 3.987-3.987 3.987h-24.857l12.314 13.352c12.09 1.005 24.307 0.583 36.622-1.361 12.444-1.945 25.05-5.445 37.853-10.468zm-14.456 76.807h79.694l-63.652-68.899c-12.831 4.959-25.602 8.427-38.208 10.403-10.111 1.588-20.158 2.203-30.072 1.912l51.723 55.969c0.192 0.194 0.354 0.388 0.515 0.615zm-30.431 45.986v-38.014h-11.988v38.014zm-91.194-242.9h7.551l-37.109-44.949-35.744 44.949h5.864c0.327 0 0.649 0.033 0.972 0.098 0.779-0.162 1.622-0.13 2.4 0.193 9.493 3.793 18.762 5.672 27.806 5.641 9.009 0 17.92-1.913 26.637-5.607 0.552-0.227 1.103-0.325 1.623-0.325zm12.153 45.76 0.031-0.031h0.032l0.066-0.033 0.031-0.032h0.031l0.032-0.032h0.066l0.031-0.033h0.032l0.066-0.031h0.031l0.032-0.033h0.097l0.032-0.032h0.097l0.063-0.032h0.066l0.063-0.033h0.066l0.032-0.032h0.195l0.063-0.032h0.61l16.499-0.033-31.6-36.686c-8.879 3.436-17.955 5.186-27.188 5.219-9.689 0-19.509-1.88-29.494-5.705l-28.743 34.938-1.85 2.234h16.884c0.649 0 1.232 0.163 1.751 0.422 14.196 5.64 28.129 8.426 41.71 8.394 13.623-3e-3 27.009-2.855 40.166-8.397zm25.472 65.82c0.744-0.648 1.653-0.939 2.594-0.939l24.822-0.032-52.238-56.552c-13.322 5.314-26.933 8.004-40.802 8.037-13.904 0.032-28.034-2.658-42.359-8.07l-52.274 56.585h24.857c0.972 0 1.846 0.356 2.562 0.939 23.008 9.075 45.596 13.547 67.729 13.515 22.072-0.033 43.785-4.57 65.109-13.483zm-134.46 7.844-70 75.769h276.08l-69.937-75.704c-21.844 8.912-44.108 13.481-66.794 13.514-22.748 0.033-45.854-4.44-69.35-13.579zm-51.498 86.865v38.014h12.023v-38.014z"/>
      <path d="m240.52 360.17v42.065h35.488l-0.6839-35.91z" stroke-width="5.5692"/>
      <path id="pines" d="m89.65 283.87-63.649 68.9h79.494l0.358-0.421 51.853-56.163c-9.851 0.291-19.801-0.356-29.849-1.912-12.606-1.977-25.341-5.445-38.207-10.404zm24.37-60.116-47.413 51.27h22.103c0.972 0 1.846 0.356 2.562 0.939 12.768 5.023 25.374 8.523 37.818 10.468 12.252 1.913 24.37 2.366 36.362 1.361l12.347-13.352h-24.823c-0.972-0.032-1.944-0.357-2.692-1.069-1.618-1.459-1.716-3.987-0.26-5.607l40.868-44.236c-12.413 4.99-25.117 7.551-38.046 7.583-12.737 0.032-25.701-2.431-38.826-7.357zm64.557-50.361h6.254l-33.414-40.479-32.179 40.479h4.699c0.323 0 0.614 0.031 0.905 0.097 0.748-0.162 1.559-0.13 2.334 0.194 8.686 3.468 17.175 5.186 25.44 5.153 8.233 0 16.365-1.718 24.37-5.121 0.52-0.227 1.04-0.323 1.591-0.323zm9.139 35.777c-2.106-0.129-3.794-1.848-3.794-3.985 0-1.103 0.456-2.074 1.168-2.788l4.861-5.898-12.445-14.453c-8.135 3.144-16.431 4.731-24.889 4.731-8.879 0.032-17.888-1.686-26.995-5.185l-27.546 33.477h14.841c0.614 0 1.201 0.13 1.751 0.39 12.996 5.185 25.731 7.745 38.176 7.713 12.508 0 24.823-2.625 36.913-7.778 2.007-0.843 4.341 0.098 5.215 2.107 0.165 0.42 0.26 0.842 0.292 1.295l8.882-9.625h-16.43zm199.44-35.681c0.292-0.065 0.583-0.097 0.905-0.097h4.699l-32.178-40.479-27.291 40.479h0.39c0.456 0.031 0.908 0.129 1.361 0.323 7.974 3.403 16.108 5.121 24.338 5.121 8.297 0.032 16.786-1.686 25.441-5.153 0.781-0.324 1.592-0.356 2.335-0.194zm10.21 41.969c0.516-0.26 1.102-0.39 1.716-0.39h14.842l-27.511-33.477c-9.143 3.499-18.152 5.217-27.031 5.185-8.457 0-16.754-1.588-24.889-4.731l-12.638 14.713 4.794 5.607c0.747 0.713 1.2 1.717 1.2 2.819 0 2.203-1.783 3.985-3.987 3.985h-16.234l9.107 9.853c0-0.519 0.094-1.037 0.322-1.522 0.842-2.01 3.176-2.95 5.188-2.107 12.118 5.153 24.401 7.778 36.909 7.778 12.445 0.032 25.185-2.528 38.212-7.713zm23.398 60.505c0.681-0.583 1.555-0.939 2.526-0.939h22.104l-47.383-51.27c-13.156 4.926-26.117 7.389-38.856 7.356-13.06-0.032-25.862-2.626-38.401-7.745l40.834 44.204c0.743 0.745 1.231 1.749 1.231 2.884 0 2.204-1.814 3.987-3.987 3.987h-24.857l12.314 13.352c12.09 1.005 24.307 0.583 36.622-1.361 12.444-1.945 25.05-5.445 37.853-10.468zm-14.456 76.807h79.694l-63.652-68.899c-12.831 4.959-25.602 8.427-38.208 10.403-10.111 1.588-20.158 2.203-30.072 1.912l51.723 55.969c0.192 0.194 0.354 0.388 0.515 0.615zm-121.62-196.91h7.551l-37.109-44.949-35.744 44.949h5.864c0.327 0 0.649 0.033 0.972 0.098 0.779-0.162 1.622-0.13 2.4 0.193 9.493 3.793 18.762 5.672 27.806 5.641 9.009 0 17.92-1.913 26.637-5.607 0.552-0.227 1.103-0.325 1.623-0.325zm12.153 45.76 0.031-0.031h0.032l0.066-0.033 0.031-0.032h0.031l0.032-0.032h0.066l0.031-0.033h0.032l0.066-0.031h0.031l0.032-0.033h0.097l0.032-0.032h0.097l0.063-0.032h0.066l0.063-0.033h0.066l0.032-0.032h0.195l0.063-0.032h0.61l16.499-0.033-31.6-36.686c-8.879 3.436-17.955 5.186-27.188 5.219-9.689 0-19.509-1.88-29.494-5.705l-28.743 34.938-1.85 2.234h16.884c0.649 0 1.232 0.163 1.751 0.422 14.196 5.64 28.129 8.426 41.71 8.394 13.623-3e-3 27.009-2.855 40.166-8.397zm25.472 65.82c0.744-0.648 1.653-0.939 2.594-0.939l24.822-0.032-52.238-56.552c-13.322 5.314-26.933 8.004-40.802 8.037-13.904 0.032-28.034-2.658-42.359-8.07l-52.274 56.585h24.857c0.972 0 1.846 0.356 2.562 0.939 23.008 9.075 45.596 13.547 67.729 13.515 22.072-0.033 43.785-4.57 65.109-13.483zm-134.46 7.844-70 75.769h276.08l-69.937-75.704c-21.844 8.912-44.108 13.481-66.794 13.514-22.748 0.033-45.854-4.44-69.35-13.579z" fill="#388e3c"/>
     </g>
    </g>
   </g>
  </g>
  <text transform="matrix(.26458 0 0 .26458 44.333 110.82)" fill="black" font-family="sans-serif" font-size="40px" style="line-height:1.25;shape-inside:url(#rect24864);white-space:pre" xml:space="preserve"/>
  <text transform="matrix(.26458 0 0 .26458 44.333 110.82)" fill="black" font-family="sans-serif" font-size="40px" style="line-height:1.25;shape-inside:url(#rect26022);white-space:pre" xml:space="preserve"/>
 </g>
</svg>
